<svg xmlns="http://www.w3.org/2000/svg" viewBox="0 0 617 116" enable-background="new 0 0 617 116"><style type="text/css">.st0{fill:#640D0D;}</style><g id="Line__x26__Text"><path class="st0" d="M167.4 60.6v11.5c0 1.1.1 1.9.2 2.5.1.5.4 1 .7 1.5.4.5.9.9 1.6 1.2.7.3 1.4.5 2.1.5.7 0 1.4-.2 2.1-.5.7-.3 1.2-.7 1.6-1.2.3-.4.6-.9.7-1.5.1-.6.2-1.4.2-2.5v-11.5h2.1v12c0 1.2-.1 2.1-.4 2.8-.3.8-.7 1.4-1.3 2.1-1.3 1.4-3 2.1-5 2.1s-3.7-.7-5-2.1c-.6-.6-1-1.3-1.3-2.1-.3-.7-.4-1.7-.4-2.8v-12h2.1zM183.9 79.3v-19.5l14.6 15.3v-14.5h2.1v19.6l-14.6-15.3v14.4h-2.1zM208 60.6v18.7h-2.1v-18.7h2.1zM213.3 60.6l5.3 14.3 5.3-14.3h2.3l-7.6 19.8-7.6-19.8h2.3zM238.9 62.5h-7.6v5.6h7.4v2h-7.4v7.3h7.6v2h-9.7v-18.8h9.7v1.9zM248 70.9l5.9 8.4h-2.5l-5.7-8.2h-.5v8.2h-2.1v-18.7h3c2.2 0 3.9.4 4.9 1.3 1.1 1 1.7 2.3 1.7 3.9 0 1.4-.4 2.6-1.3 3.5-.8 1-2 1.5-3.4 1.6zm-2.8-1.6h1.3c1.3 0 2.4-.3 3.1-.9.7-.6 1.1-1.4 1.1-2.5 0-2.2-1.4-3.3-4.2-3.3h-1.2v6.7zM267.6 63.2l-1.7 1.1c-.5-.8-.9-1.3-1.4-1.6-.5-.3-1.1-.4-1.8-.4-.9 0-1.6.3-2.2.8-.6.5-.9 1.2-.9 2.1 0 1.1.9 2 2.6 2.8l1.8.8c1.5.7 2.6 1.4 3.2 2.2.7.8 1 1.8 1 3 0 1.6-.6 3-1.7 4.1-1.2 1.1-2.6 1.7-4.2 1.7-1.5 0-2.7-.4-3.7-1.3-1-.8-1.7-2-2-3.6l2-.6c.5 2.3 1.8 3.4 3.8 3.4 1 0 1.9-.4 2.7-1.1.7-.7 1.1-1.6 1.1-2.6 0-.8-.2-1.4-.7-2-.5-.5-1.3-1-2.5-1.6l-1.7-.8c-.7-.3-1.3-.6-1.7-.9-.5-.3-.9-.7-1.2-1-.6-.7-.9-1.6-.9-2.6 0-1.4.5-2.5 1.5-3.5 1-.9 2.3-1.4 3.8-1.4 2.1.1 3.7 1 4.8 3zM274.6 60.6v18.7h-2.1v-18.7h2.1zM284.5 62.5v16.8h-2.1v-16.8h-4.5v-2h11.1v2h-4.5zM297.2 71.3l-6.1-10.7h2.4l4.8 8.4 4.8-8.4h2.4l-6.2 10.7v8h-2.1v-8zM318.7 60.6v16.8h5.2v2h-7.3v-18.8h2.1zM329.2 60.6v18.7h-2.1v-18.7h2.1zM334.5 79.3v-18.7h3.4c2.1 0 3.6.5 4.6 1.5.9 1 1.4 2.2 1.4 3.6 0 1.5-.6 2.7-1.8 3.6 1.1.3 2 .9 2.6 1.7.6.8.9 1.8.9 3 0 1.5-.5 2.7-1.6 3.7-.6.6-1.3 1-2 1.2-.7.2-1.7.4-2.8.4h-4.7zm2.1-10.5h1.6c.8 0 1.4-.1 1.8-.2.4-.1.8-.4 1.1-.7.5-.6.8-1.3.8-2.2 0-2.1-1.2-3.2-3.6-3.2h-1.6v6.3zm0 8.6h2.4c.9 0 1.6-.1 2.1-.2s.9-.4 1.3-.8c.7-.6 1-1.4 1-2.4 0-1.1-.4-1.9-1.3-2.6-.7-.5-1.9-.8-3.5-.8h-2.1v6.8zM354.6 70.9l5.9 8.4h-2.5l-5.7-8.2h-.5v8.2h-2.1v-18.7h3c2.2 0 3.9.4 4.9 1.3 1.1 1 1.7 2.3 1.7 3.9 0 1.4-.4 2.6-1.3 3.5-.8 1-2 1.5-3.4 1.6zm-2.8-1.6h1.3c1.3 0 2.4-.3 3.1-.9.7-.6 1.1-1.4 1.1-2.5 0-2.2-1.4-3.3-4.2-3.3h-1.2v6.7zM374.5 74h-8l-2.3 5.3h-2.2l8.6-19.6 8.4 19.6h-2.3l-2.2-5.3zm-.8-1.9l-3.1-7.5-3.2 7.5h6.3zM387 70.9l5.9 8.4h-2.5l-5.7-8.2h-.5v8.2h-2.1v-18.7h3c2.2 0 3.9.4 4.9 1.3 1.1 1 1.7 2.3 1.7 3.9 0 1.4-.4 2.6-1.3 3.5-.9 1-2 1.5-3.4 1.6zm-2.8-1.6h1.3c1.3 0 2.4-.3 3.1-.9.7-.6 1.1-1.4 1.1-2.5 0-2.2-1.4-3.3-4.2-3.3h-1.2v6.7zM398.7 60.6v18.7h-2.1v-18.7h2.1zM413.6 62.5h-7.6v5.6h7.4v2h-7.4v7.3h7.6v2h-9.7v-18.8h9.7v1.9zM427.9 63.2l-1.7 1.1c-.5-.8-.9-1.3-1.4-1.6-.5-.3-1.1-.4-1.8-.4-.9 0-1.6.3-2.2.8-.6.5-.9 1.2-.9 2.1 0 1.1.9 2 2.6 2.8l1.8.8c1.5.7 2.6 1.4 3.2 2.2.7.8 1 1.8 1 3 0 1.6-.6 3-1.7 4.1-1.2 1.1-2.6 1.7-4.2 1.7-1.5 0-2.7-.4-3.7-1.3-1-.8-1.7-2-2-3.6l2-.6c.5 2.3 1.8 3.4 3.8 3.4 1 0 1.9-.4 2.7-1.1.7-.7 1.1-1.6 1.1-2.6 0-.8-.2-1.4-.7-2-.5-.5-1.3-1-2.5-1.6l-1.7-.8c-.7-.3-1.3-.6-1.7-.9-.5-.3-.9-.7-1.2-1-.6-.7-.9-1.6-.9-2.6 0-1.4.5-2.5 1.5-3.5 1-.9 2.3-1.4 3.8-1.4 2 .1 3.6 1 4.8 3zM178.8 48.6v-8.8l-4.2 7.7-4.2-7.7v8.8l1.3.9v2.6h-6.7v-2.6l1.3-.9v-12.5l-1.3-.9v-2.6h5.8l3.7 6.9 3.9-6.9h5.7v2.6l-1.3.9v12.5l1.3.9v2.6h-6.7v-2.6l1.4-.9zM194.4 52.1h-7.2v-2.6l1.4-.9v-12.4l-1.4-.9v-2.6h7.2v2.6l-1.4.9v12.5l1.4.9v2.5zM210.1 35.5l.3.3v2.2h-4.4v-.9l-.5-.5h-3l-.5.5v2.9h6.1l2.1 2.2.3.3v6.3l-3 3.3h-6.9l-2.7-3.1-.2-.3v-2.7h4.4v1.5l.6.7h2.9l.6-.7v-3.8l-.1-.1h-6.2l-2.2-2.6v-5.3l2.6-2.9.3-.3h7l2.5 3zM226 35.5l.3.3v2.2h-4.4v-.9l-.5-.5h-3l-.5.5v2.8l.1.1h6.1l2.1 2.2.3.3v6.3l-3 3.3h-6.9l-2.7-3.1-.2-.3v-2.7h4.4v1.5l.6.7h2.9l.6-.7v-3.8l-.1-.1h-6.2l-2.2-2.6v-5.3l2.6-2.9.3-.3h7l2.4 3zM236.5 52.1h-7.2v-2.6l1.4-.9v-12.4l-1.4-.9v-2.6h7.2v2.6l-1.4.9v12.5l1.4.9v2.5zM252.2 35.5l.3.3v2.2h-4.5v-.9l-.5-.5h-3l-.5.5v2.9h6.1l2.1 2.2.3.3v6.3l-3 3.3h-6.9l-2.7-3.1-.2-.3v-2.7h4.4v1.5l.6.7h2.9l.6-.7v-3.8l-.1-.1h-6.2l-2.2-2.6v-5.3l2.6-2.9.3-.3h7l2.6 3zM268.1 35.5l.3.3v2.2h-4.4v-.9l-.5-.5h-3l-.5.5v2.9h6.1l2.1 2.2.3.3v6.3l-3 3.3h-6.9l-2.7-3.1-.2-.3v-2.7h4.4v1.5l.6.7h2.9l.6-.7v-3.8l-.1-.1h-6.2l-2.2-2.6v-5.3l2.6-2.9.3-.3h7l2.5 3zM278.6 52.1h-7.2v-2.6l1.4-.9v-12.4l-1.4-.9v-2.6h7.2v2.6l-1.4.9v12.5l1.4.9v2.5zM295.4 35.6l.3.3v6.3l-2.7 2.9-.3.3h-5.3v3.2l1.5.9v2.6h-7.2v-2.6l1.4-.9v-12.4l-1.4-.9v-2.6h11.1l2.6 2.9zm-4.1 1.5l-.5-.5h-3.4v4.8h3.4l.5-.5v-3.8zM312 35.6l.3.3v6.3l-2.7 2.9-.3.3h-5.3v3.2l1.5.9v2.6h-7.2v-2.6l1.4-.9v-12.4l-1.4-.9v-2.6h11.1l2.6 2.9zm-4.1 1.5l-.5-.5h-3.4v4.8h3.4l.5-.5v-3.8zM321.9 52.1h-7.2v-2.6l1.4-.9v-12.4l-1.4-.9v-2.6h7.2v2.6l-1.4.9v12.5l1.4.9v2.5zM348 35.5l.3.3v2.2h-4.4v-.9l-.5-.5h-3l-.5.5v2.8l.1.1h6.1l2.1 2.2.3.3v6.3l-3 3.3h-6.9l-2.7-3.1-.2-.3v-2.7h4.4v1.5l.6.7h2.9l.6-.7v-3.8l-.1-.1h-6.2l-2.2-2.6v-5.3l2.6-2.9.3-.3h7l2.4 3zM350.4 32.6h15.7v6.2h-3.6v-2.1h-2v12l1.4.9v2.6h-7.1v-2.6l1.4-.9v-12h-2v2.1h-3.6v-6.2zM381.4 49.6v2.6h-6.8v-2.6l1.3-.8-.8-2.7h-4.5l-.9 2.7 1.3.8v2.6h-6.5v-2.5l1.3-1 4.7-15.3.2-.7h4.5l4.7 15.9 1.5 1zm-7.4-7.2l-1.1-3.9-1.2 3.9h2.3zM379.7 32.6h15.7v6.2h-3.6v-2.1h-2v12l1.4.9v2.6h-7.2v-2.6l1.4-.9v-12h-2v2.1h-3.6v-6.2zM397.6 32.6h14.2v6.1h-4.4v-2.1h-4.1v3.7h4.7v3.7h-4.7v4.1h4.1v-1.4h4.4v5.4h-14.2v-2.6l1.4-.9v-12.4l-1.4-.9v-2.7zM434.1 32.6h6.9v2.7l-1.6.9v12.7l-2.7 2.9-.3.3h-6.9l-3-3.2v-12.7l-1.4-.9v-2.6h6.6v2.5l-.7.8v11.6l.5.5h3l.5-.5v-11.6l-.9-.9v-2.5zM450.7 49.5v2.6h-6.6v-2.6l1.4-.9v-12.4l-1.4-.9v-2.6h5.9l5.7 10.8v-7.3l-1.2-.9v-2.6h6.4v2.6l-1.3.9v16h-4.1l-6.2-11.9v8.3l1.4.9zM471.2 52.1h-7.2v-2.6l1.4-.9v-12.4l-1.4-.9v-2.6h7.2v2.6l-1.4.9v12.5l1.4.9v2.5zM483.3 32.6h7.4v2.7l-2 1-4.7 15.8h-3.8l-4.9-15.9-1.8-1v-2.7h7.1v2.6l-1.2.8 2.6 8.5 2.6-8.5-1.3-.8v-2.5zM492.8 32.6h14.2v6.1h-4.4v-2.1h-4.1v3.7h4.7v3.7h-4.7v4.1h4.1v-1.4h4.4v5.4h-14.2v-2.6l1.4-.9v-12.4l-1.4-.9v-2.7zM525.7 49.6v2.5h-6.5v-2.6l.9-.7-2-4.5h-2.2v4.3l1 .9v2.5h-6.7v-2.6l1.3-.9v-12.4l-1.3-.9v-2.6h11l3 3.2v5.4l-2 2.1 2.3 5.2 1.2 1.1zm-5.9-12.5l-.6-.5h-3.3v3.8h3.2l.6-.7v-2.6zM540.8 35.5l.3.3v2.2h-4.4v-.9l-.5-.5h-3l-.5.5v2.8l.1.1h6.1l2.1 2.2.3.3v6.3l-3 3.3h-6.9l-2.7-3.1-.2-.3v-2.7h4.4v1.5l.6.7h2.9l.6-.7v-3.8l-.1-.1h-6.2l-2.2-2.6v-5.3l2.6-2.9.3-.3h7l2.4 3zM551.3 52.1h-7.2v-2.6l1.4-.9v-12.4l-1.4-.9v-2.6h7.2v2.6l-1.4.9v12.5l1.4.9v2.5zM553.5 32.6h15.7v6.2h-3.6v-2.1h-2v12l1.4.9v2.6h-7.1v-2.6l1.4-.9v-12h-2v2.1h-3.6v-6.2zM580.4 32.6h6.4v2.5l-1.3 1.1-4.3 8.5v3.9l1.4.9v2.6h-7.1v-2.6l1.3-.9v-3.9l-4.3-8.5-1.2-1.1v-2.5h6.3v2.5l-.8.7 2.2 4.2 2.1-4.2-.8-.7v-2.5zM144.4 17.7v80.9h2.7v-80.9"/><path class="st0" d="M593.6 45.8v1.1h-2.1v5.5h-1.3v-5.5h-2.2v-1.1h5.6zm7.1 6.6l-.2-3.9v-1.9h-.1l-.6 2-1.2 3.7h-1.4l-1.2-3.8c-.1-.5-.3-1.3-.5-1.9h-.1v1.9l-.2 3.9h-1.3l.5-6.6h2l1.1 3.2c.1.5.3 1 .4 1.7.2-.6.3-1.2.5-1.7l1.1-3.3h1.9l.5 6.6h-1.2z"/></g><g id="Maroon_MSState_-1C"><path class="st0" d="M126.7 74.4c-3.2-2.1-6.6-4-10-5.8v8.5c-2.5-1.5-5.1-2.8-7.9-4v3.6l3.8 5.7v7.9h-25.5v-23.3c-.9-.1-1.8-.2-2.8-.3l-9.9 15.6-9.9-15.6-2.8.3v23.3h-25.3v-7.9l3.8-5.7v-3.6c-2.8 1.2-5.4 2.6-7.9 4v-8.5c-3.5 1.7-6.8 3.7-10 5.8l-.5-.4 4.6-14.7-3.9-8.5.1-.4c5.4-3.5 11.1-6.4 17.5-8.9v-1.9l-3.8-6v-7.6h23.8l9.2 14.3c1.7-.1 3.4-.2 5-.2 1.7 0 3.4.1 5 .2l9.2-14.3h23.8v7.6l-3.8 6v1.9c6.4 2.4 12.1 5.3 17.5 8.9l.1.4-3.9 8.5 4.6 14.7-.1.4zm-3.5-22.8c-4.5-2.8-9.2-5.2-14.5-7.2v3c2.4 1 4.8 2.1 7.1 3.3l.7.4.2.2v14.5c2.1 1 4.2 2.1 6.2 3.3l-3.1-9.9 3.4-7.6zm-97.5 0l3.5 7.6-3.2 9.9c2-1.2 4.1-2.3 6.2-3.3v-14.5l.1-.2.7-.4c2.3-1.2 4.7-2.3 7.1-3.3v-3c-5.2 2-9.9 4.4-14.4 7.2zm48.7 11.7c13.4 0 27.3 3.3 39.4 9.4v-19.9c-12-6.3-26-9.7-39.4-9.7-13.4 0-27.4 3.5-39.4 9.7v19.9c12.2-6.1 26.1-9.4 39.4-9.4zM66.9 50.3c-.8.1-1.6.2-2.5.2v-1.7h-.4c-.7.1-1.3.2-2.1.3h-.3v9.6l.4-.1.9-.1v2.5c-1.9.2-3.8.6-5.6.9v-2.5l1-.2h.3v-9.600000000000001l-.4.1c-.7.1-1.4.3-2 .4l-.2.1v1.7l-2.4.6v-4.2c4.4-1.1 8.9-1.9 13.3-2.2v4.2zm-15.3 2.1l-3.1.9v-1.1l-.4.1c-1.2.4-2.5.8-3.8 1.3l-.2.1v3.3l.4-.2c1.9-.7 3.6-1.3 5.3-1.8l1.8 1.2v4.8l-2.5 3.2c-1.9.6-3.8 1.3-5.7 2l-2.2-1.4v-1.8l3-1.2v1.7l.4-.2c1.2-.5 2.5-.9 3.8-1.3l.2-.1v-4.2l-.4.1c-1.9.6-3.7 1.3-5.4 1.9l-1.6-1.1v-3.9l2.4-3.4c1.9-.7 3.8-1.4 5.7-2 .8.5 1.6 1 2.4 1.6v1.5zm41.6-.3c-.8-.2-1.6-.4-2.4-.5v-1.7h-.3l-2-.4-.4-.1v9.6h.3l1 .2v2.5c-1.9-.3-3.8-.6-5.6-.8v-2.5l.9.1h.4v-9.5h-.3c-.7-.1-1.3-.2-2-.2h-.4v1.7c-.8-.1-1.6-.1-2.5-.2v-4.2c4.5.3 9 1 13.4 2v4zm6.9.3l-.4-.1v3.6l.2.1c1.3.4 2.6.9 3.9 1.4v2.2c-1.2-.5-2.5-.9-3.7-1.3l-.4-.3v3.8l.2.1c1.3.4 2.5.8 3.7 1.3l.4.2v-1.2l3 1.2v3.6c-3.8-1.6-7.7-2.9-11.7-4v-2.5l.8.2.4.1v-9.6l-.2-.1-1-.3v-2.5c4 1 7.9 2.4 11.7 4v3.4l-3-1.2v-.9l-.2-.1c-1.2-.3-2.4-.7-3.7-1.1m-26.5-2.7l-.3-.9-.3.8-1.2 3.4-.2.4h3.3l-.2-.4-1.1-3.3zm7 10.9c-1.8-.1-3.6-.2-5.4-.2v-2.5h1.2l-.8-2.3h-4.800000000000001l-.8 2.4h1.2v2.5l-5.1.3v-2.5l1-.1h.2l.1-.2 4.3-12.2h3.5l4.1 12.1.1.2h.2c.3 0 .7 0 1.1.1v2.4z"/></g></svg>